HIERARCHY
ROOT Hips
{
    OFFSET 0.000000 0.000000 0.000000
    CHANNELS 6 Xposition Yposition Zposition Zrotation Xrotation Yrotation
    JOINT Spine
    {
        OFFSET -0.000000 7.897928 0.000000
        CHANNELS 3 Zrotation Xrotation Yrotation
        JOINT Spine1
        {
            OFFSET -0.000000 22.881742 0.000000
            CHANNELS 3 Zrotation Xrotation Yrotation
            JOINT Neck
            {
                OFFSET -0.000000 22.787771 2.071616
                CHANNELS 3 Zrotation Xrotation Yrotation
                JOINT Head
                {
                    OFFSET -0.000000 13.484266 -1.926324
                    CHANNELS 3 Zrotation Xrotation Yrotation
                    End Site
                    {
                        OFFSET -0.000000 24.079046 0.000000
                    }
                }
            }
            JOINT LeftShoulder
            {
                OFFSET 3.854963 21.096247 -0.110468
                CHANNELS 3 Zrotation Xrotation Yrotation
                JOINT LeftArm
                {
                    OFFSET 10.572188 0.000000 0.000000
                    CHANNELS 3 Zrotation Xrotation Yrotation
                    JOINT LeftForeArm
                    {
                        OFFSET 34.932854 0.000000 0.000000
                        CHANNELS 3 Zrotation Xrotation Yrotation
                        JOINT LeftHand
                        {
                            OFFSET 23.279285 0.000000 0.000000
                            CHANNELS 3 Zrotation Xrotation Yrotation
                            End Site
                            {
                                OFFSET 14.447429 0.000000 0.000000
                            }
                        }
                    }
                }
            }
            JOINT RightShoulder
            {
                OFFSET -3.825334 21.096247 -0.110468
                CHANNELS 3 Zrotation Xrotation Yrotation
                JOINT RightArm
                {
                    OFFSET -10.572188 0.000000 0.000000
                    CHANNELS 3 Zrotation Xrotation Yrotation
                    JOINT RightForeArm
                    {
                        OFFSET -34.932854 0.000000 0.000000
                        CHANNELS 3 Zrotation Xrotation Yrotation
                        JOINT RightHand
                        {
                            OFFSET -23.279285 0.000000 0.000000
                            CHANNELS 3 Zrotation Xrotation Yrotation
                            End Site
                            {
                                OFFSET -14.447429 0.000000 0.000000
                            }
                        }
                    }
                }
            }
        }
    }
    JOINT LeftUpLeg
    {
        OFFSET 9.631618 0.000000 0.000000
        CHANNELS 3 Zrotation Xrotation Yrotation
        JOINT LeftLeg
        {
            OFFSET -0.000000 -35.385456 0.000000
            CHANNELS 3 Zrotation Xrotation Yrotation
            JOINT LeftFoot
            {
                OFFSET -0.000000 -43.284000 0.000000
                CHANNELS 3 Zrotation Xrotation Yrotation
                JOINT LeftToeBase
                {
                    OFFSET -0.000000 -6.260552 14.447429
                    CHANNELS 3 Zrotation Xrotation Yrotation
                    End Site
                    {
                        OFFSET -0.000000 0.000000 3.852648
                    }
                }
            }
        }
    }
    JOINT RightUpLeg
    {
        OFFSET -9.631618 0.000000 0.000000
        CHANNELS 3 Zrotation Xrotation Yrotation
        JOINT RightLeg
        {
            OFFSET -0.000000 -35.385456 0.000000
            CHANNELS 3 Zrotation Xrotation Yrotation
            JOINT RightFoot
            {
                OFFSET -0.000000 -43.284000 0.000000
                CHANNELS 3 Zrotation Xrotation Yrotation
                JOINT RightToeBase
                {
                    OFFSET -0.000000 -6.260552 14.447429
                    CHANNELS 3 Zrotation Xrotation Yrotation
                    End Site
                    {
                        OFFSET -0.000000 0.000000 3.852648
                    }
                }
            }
        }
    }
}
MOTION
Frames:    9
Frame Time:    0.008333
71.952072    128.299789    27.708012    -6.340206    -0.329749    88.384583    -1.186957    -8.132861    -1.326037    2.106713    6.141428    -1.354646    -0.900187    12.034199    -7.194699    3.898360    6.128892    -7.107641    -3.462425    12.186719    5.492093    -44.587276    54.589001    -20.685314    6.167804    -19.274836    -36.975655    -2.913716    -17.646729    13.601682    0.468549    12.690414    2.473297    39.869213    55.810768    29.938696    1.975480    -20.218353    25.597075    0.214188    -20.637842    0.180770    4.315615    -5.476716    6.637263    -3.762589    17.679188    -16.869446    10.614067    -20.211361    27.863733    0.000000    0.000000    0.000000    -2.168726    -18.582485    5.756898    7.962854    34.092812    1.077703    -8.613170    -19.743042    -6.154495    0.000000    0.000000    0.000000    
72.075882    128.246765    27.823505    -6.328789    -0.196799    88.183731    -1.335299    -8.130897    -1.177529    2.160354    6.109775    -1.197885    -0.984850    12.457489    -7.349854    4.180882    5.614854    -7.225840    -3.368799    12.275944    5.337988    -44.817467    54.473934    -20.645514    6.155422    -19.159733    -36.728275    -2.652236    -17.525467    13.897532    0.600132    12.738209    2.314421    39.632137    56.156670    30.182343    2.108999    -20.394791    26.009796    0.355814    -20.849590    0.108638    4.390079    -6.129936    6.767230    -3.816953    19.104891    -16.798540    10.142097    -20.633566    27.831556    0.000000    0.000000    0.000000    -2.082706    -18.632584    5.982011    7.848556    34.338284    1.214894    -8.593762    -19.871614    -6.194041    0.000000    0.000000    0.000000    
72.180763    128.178116    27.924915    -6.350916    -0.093903    88.138878    -1.362648    -8.131026    -1.157004    2.107932    6.066029    -1.171857    -0.811373    12.036979    -7.205054    3.781087    6.293255    -7.137880    -3.335921    12.301147    5.359766    -44.957672    54.522079    -20.567207    6.229898    -19.139297    -36.592548    -2.691270    -17.491999    13.830622    0.672695    12.746969    2.283353    39.500843    56.376266    30.374069    2.308211    -20.385015    26.321045    0.822200    -20.886015    0.490965    4.504135    -6.986139    6.570415    -4.009477    20.716646    -16.556932    10.266532    -20.757593    28.049395    0.000000    0.000000    0.000000    -2.028528    -18.521847    5.818772    7.523264    34.317577    1.606478    -8.788831    -20.033463    -6.259952    0.000000    0.000000    0.000000    
72.302475    128.117111    28.041912    -6.326638    0.005615    88.054199    -1.609316    -8.183784    -1.054033    2.439277    6.224222    -1.071551    -0.833155    11.978441    -7.298274    3.647641    6.256070    -7.244172    -3.380511    12.261330    5.255114    -45.022949    54.524380    -20.628576    6.187947    -19.016747    -36.527840    -2.607632    -17.375973    13.847325    0.579451    12.661049    2.010602    39.264820    56.733810    30.711449    2.436668    -20.475952    26.799089    0.956544    -21.014250    0.479879    4.667048    -7.921552    6.519798    -4.226679    22.522964    -16.038345    9.660542    -21.294903    27.732298    0.000000    0.000000    0.000000    -2.022114    -18.344772    6.245327    7.691566    34.183372    1.381752    -9.063185    -20.132963    -6.359546    0.000000    0.000000    0.000000    
72.412453    128.049362    28.162395    -6.309926    0.099141    87.954002    -1.551107    -8.090534    -1.063385    2.327318    6.084176    -1.077421    -0.994363    12.076342    -7.193983    3.661742    6.264534    -7.128963    -3.450991    12.345180    5.379640    -45.154285    54.440559    -20.414907    6.262320    -18.814409    -36.528950    -2.749450    -17.162951    13.776318    0.552587    12.697334    2.167289    39.407665    56.987896    30.808025    2.408735    -20.497871    27.057251    1.166089    -21.036259    0.287930    4.957630    -8.938633    6.239102    -4.784665    24.407377    -15.187276    9.545642    -21.383280    27.527315    0.000000    0.000000    0.000000    -1.943345    -18.262201    6.523317    7.674624    34.215096    1.468286    -9.361301    -20.202370    -6.610632    0.000000    0.000000    0.000000    
72.508232    127.973488    28.274191    -6.310356    0.244076    87.906387    -1.840552    -7.983248    -0.962124    2.665274    5.915770    -0.971450    -1.369645    12.600110    -7.368740    4.154266    5.627555    -7.236541    -3.532861    12.507988    5.179443    -45.255024    54.410770    -20.455812    6.481395    -18.714720    -36.300407    -3.237500    -17.059475    13.645065    0.498634    12.771957    1.898170    39.182129    57.298603    31.091103    2.441517    -20.541189    27.491083    1.438620    -21.095013    0.308082    5.146265    -10.276758    6.123494    -5.118669    26.742699    -14.720465    9.125240    -21.537552    27.375023    0.000000    0.000000    0.000000    -1.935739    -18.198795    6.696192    7.620777    34.246452    1.649997    -9.671053    -20.333899    -6.919578    0.000000    0.000000    0.000000    
72.638588    127.884438    28.390610    -6.283517    0.379007    87.865524    -1.907159    -8.101855    -0.959256    2.652061    6.204502    -0.967890    -1.203283    12.152718    -7.186410    3.657610    6.048703    -7.107143    -3.518490    12.421212    5.313588    -45.205555    54.479298    -20.534327    6.640152    -18.549988    -36.296841    -4.017718    -16.925945    13.442475    0.455815    12.696844    1.973188    39.190804    57.439987    31.250116    2.572267    -20.577944    27.855967    1.256185    -21.170956    0.218652    5.412528    -11.563004    5.752284    -5.656419    29.053616    -13.872784    8.523350    -21.721148    26.997971    0.000000    0.000000    0.000000    -1.913016    -17.982403    6.879045    7.546309    34.098919    1.799154    -10.060762    -20.519199    -7.218055    0.000000    0.000000    0.000000    
72.728691    127.800919    28.531784    -6.259221    0.474376    87.805405    -1.934329    -7.968278    -0.824192    2.499432    6.090633    -0.822470    -1.031044    12.273606    -7.222258    3.670002    5.894970    -7.146220    -3.258143    12.515289    5.242339    -45.302612    54.359192    -20.690956    6.860209    -18.215122    -36.055355    -5.158361    -16.643097    12.986026    0.851743    12.656922    1.735995    38.888000    57.832653    31.377136    2.630548    -20.852835    28.274723    1.069789    -21.470314    -0.044308    5.823845    -13.102922    5.440147    -6.408114    31.708866    -12.579424    7.691143    -21.838350    26.266420    0.000000    0.000000    0.000000    -1.794009    -17.752167    7.008094    7.349538    33.871197    1.974999    -10.610847    -20.540501    -7.500090    0.000000    0.000000    0.000000    
72.807022    127.706657    28.676371    -6.276035    0.521492    87.790840    -2.001606    -7.842543    -0.789628    2.640933    5.928992    -0.789162    -1.153766    12.153144    -7.177499    3.533071    6.184962    -7.115181    -3.411814    12.656718    5.226583    -45.176228    54.236897    -20.724245    7.038705    -17.904819    -36.085171    -6.165188    -16.373396    12.812835    0.751052    12.671270    1.801804    39.164318    57.942009    31.243475    2.756850    -21.177185    28.457127    1.327431    -21.824854    0.179796    6.430470    -14.768863    4.914448    -7.754027    34.428684    -10.800460    7.234469    -21.710264    25.564453    0.000000    0.000000    0.000000    -1.645410    -17.584232    7.111647    7.213188    33.685333    2.135698    -11.003407    -20.702297    -7.748133    0.000000    0.000000    0.000000    
